HIERARCHY
ROOT Lex4_Hips
{
  OFFSET -0.563458 94.7827 2.4889
  CHANNELS 6 Xposition Yposition Zposition Zrotation Xrotation Yrotation
  JOINT Lex4_LeftUpLeg
  {
    OFFSET 11.2507 0 0
    CHANNELS 6 Xposition Yposition Zposition Zrotation Xrotation Yrotation
    JOINT Lex4_LeftLeg
    {
      OFFSET 0 -48.2125 0
      CHANNELS 6 Xposition Yposition Zposition Zrotation Xrotation Yrotation
      JOINT Lex4_LeftFoot
      {
        OFFSET 0 -41.8358 0
        CHANNELS 6 Xposition Yposition Zposition Zrotation Xrotation Yrotation
        JOINT Lex4_LeftToeBase
        {
          OFFSET 0 0 13.7184
          CHANNELS 6 Xposition Yposition Zposition Zrotation Xrotation Yrotation
          JOINT Lex4_LeftToeEnd
          {
            OFFSET 0 0 7.5
            CHANNELS 6 Xposition Yposition Zposition Zrotation Xrotation Yrotation
            End Site
            {
              OFFSET 0 0 0
            }
          }
        }
      }
    }
  }
  JOINT Lex4_RightUpLeg
  {
    OFFSET -11.2507 0 0
    CHANNELS 6 Xposition Yposition Zposition Zrotation Xrotation Yrotation
    JOINT Lex4_RightLeg
    {
      OFFSET 0 -48.2125 0
      CHANNELS 6 Xposition Yposition Zposition Zrotation Xrotation Yrotation
      JOINT Lex4_RightFoot
      {
        OFFSET 0 -41.8358 0
        CHANNELS 6 Xposition Yposition Zposition Zrotation Xrotation Yrotation
        JOINT Lex4_RightToeBase
        {
          OFFSET 0 0 13.7184
          CHANNELS 6 Xposition Yposition Zposition Zrotation Xrotation Yrotation
          JOINT Lex4_RightToeEnd
          {
            OFFSET 0 0 7.5
            CHANNELS 6 Xposition Yposition Zposition Zrotation Xrotation Yrotation
            End Site
            {
              OFFSET 0 0 0
            }
          }
        }
      }
    }
  }
  JOINT Lex4_Spine
  {
    OFFSET 0 14.1428 0
    CHANNELS 6 Xposition Yposition Zposition Zrotation Xrotation Yrotation
    JOINT Lex4_Head
    {
      OFFSET 0 48.2444 0
      CHANNELS 6 Xposition Yposition Zposition Zrotation Xrotation Yrotation
      End Site
      {
        OFFSET 0 11.5 0
      }
    }
    JOINT Lex4_LabelingCluster_1
    {
      OFFSET 6.91668 29.7232 -14.2315
      CHANNELS 6 Xposition Yposition Zposition Zrotation Xrotation Yrotation
      End Site
      {
        OFFSET 0 0 0
      }
    }
    JOINT Lex4_LeftShoulder
    {
      OFFSET 0 33.7901 0
      CHANNELS 6 Xposition Yposition Zposition Zrotation Xrotation Yrotation
      JOINT Lex4_LeftArm
      {
        OFFSET 0 19.8458 0
        CHANNELS 6 Xposition Yposition Zposition Zrotation Xrotation Yrotation
        JOINT Lex4_LeftForeArm
        {
          OFFSET 0 31.3007 0
          CHANNELS 6 Xposition Yposition Zposition Zrotation Xrotation Yrotation
          JOINT Lex4_LeftHand
          {
            OFFSET 0 25.4109 0
            CHANNELS 6 Xposition Yposition Zposition Zrotation Xrotation Yrotation
            JOINT Lex4_LeftHandEnd
            {
              OFFSET 0 10 0
              CHANNELS 6 Xposition Yposition Zposition Zrotation Xrotation Yrotation
              End Site
              {
                OFFSET 0 0 0
              }
            }
            JOINT Lex4_LeftHandThumb1
            {
              OFFSET 0 0 0
              CHANNELS 6 Xposition Yposition Zposition Zrotation Xrotation Yrotation
              JOINT Lex4_LeftHandThumb2
              {
                OFFSET 0 0 10
                CHANNELS 6 Xposition Yposition Zposition Zrotation Xrotation Yrotation
                End Site
                {
                  OFFSET 0 0 0
                }
              }
            }
          }
        }
      }
    }
    JOINT Lex4_RightShoulder
    {
      OFFSET 0 33.7901 0
      CHANNELS 6 Xposition Yposition Zposition Zrotation Xrotation Yrotation
      JOINT Lex4_RightArm
      {
        OFFSET 0 19.8458 0
        CHANNELS 6 Xposition Yposition Zposition Zrotation Xrotation Yrotation
        JOINT Lex4_RightForeArm
        {
          OFFSET 0 31.3007 0
          CHANNELS 6 Xposition Yposition Zposition Zrotation Xrotation Yrotation
          JOINT Lex4_RightHand
          {
            OFFSET 0 25.4109 0
            CHANNELS 6 Xposition Yposition Zposition Zrotation Xrotation Yrotation
            JOINT Lex4_RightHandEnd
            {
              OFFSET 0 10 0
              CHANNELS 6 Xposition Yposition Zposition Zrotation Xrotation Yrotation
              End Site
              {
                OFFSET 0 0 0
              }
            }
            JOINT Lex4_RightHandThumb1
            {
              OFFSET 0 0 0
              CHANNELS 6 Xposition Yposition Zposition Zrotation Xrotation Yrotation
              JOINT Lex4_RightHandThumb2
              {
                OFFSET 0 0 10
                CHANNELS 6 Xposition Yposition Zposition Zrotation Xrotation Yrotation
                End Site
                {
                  OFFSET 0 0 0
                }
              }
            }
          }
        }
      }
    }
  }
}
MOTION
Frames:	4
Frame Time:	0.0416667
9.04478 82.7011 -125.992 -13.9959 5.47965 -114.104 11.2507 0 0 12.2141 -4.05305 19.9998 0 -48.2125 0 -1.48557e-015 61.8425 1.68499e-015 0 -41.8358 -7.10543e-015 5.62384 -16.6914 18.3467 0 0 13.7184 -2.4623e-015 -15.3322 -3.29793e-015 0 3.55271e-015 7.5 -3.18055e-015 -1.59028e-015 1.59028e-015 -11.2507 -1.42109e-014 0 -32.8503 -2.31418 -10.4381 -2.84217e-014 -48.2125 -1.42109e-014 0 13.3184 -0 0 -41.8358 -1.42109e-014 31.624 28.5244 -32.0032 0 7.10543e-015 13.7184 -6.15894e-016 -17.0328 3.32646e-015 0 1.33227e-015 7.5 7.95139e-016 -1.98785e-016 -0 0 14.1428 0 0.555943 26.8066 -12.7571 0 48.2444 7.10543e-015 13.6361 -4.42137 -47.1959 6.89691 30.2617 -15.2759 84.1108 -3.168 -179.401 1.42109e-014 33.7901 0 -85.8721 -8.71466 10.6301 0 19.8458 7.10543e-015 -78.2521 22.2309 49.3992 -5.32907e-015 31.3007 0 179.999 89.4165 128.896 -1.42109e-014 25.4109 0 -24.4714 -20.7062 -1.34945e-014 -1.06581e-014 10 0 -2.64834e-031 -6.36111e-015 -2.38542e-015 0 0 0 15.0933 -21.7379 36.0619 0 7.10543e-015 10 3.18055e-015 3.18055e-015 1.59028e-015 1.42109e-014 33.7901 0 87.9018 -4.17561 -6.53644 0 19.8458 0 34.5628 16.4072 46.6662 1.42109e-014 31.3007 0 -6.32692e-007 71.3312 -23.7064 0 25.4109 0 -52.8689 3.8599 -1.27511e-014 -1.42109e-014 10 -1.42109e-014 -9.54166e-015 -3.18055e-015 -3.18055e-015 0 0 0 -13.7831 -20.2443 -35.3345 0 2.84217e-014 10 -3.18055e-015 -6.36111e-015 -0 
9.03042 82.6164 -125.89 -13.9369 5.33103 -114.589 11.2507 0 0 12.1039 -4.03764 20.4612 0 -48.2125 7.10543e-015 -7.95139e-016 61.9295 -0 0 -41.8358 -3.55271e-015 5.31751 -16.9169 18.118 0 0 13.7184 -2.30725e-015 -15.3537 3.29827e-015 0 0 7.5 -3.18055e-015 7.95139e-016 3.18055e-015 -11.2507 0 1.42109e-014 -33.1929 -3.01194 -9.62634 2.84217e-014 -48.2125 0 0 14.1418 -0 0 -41.8358 -1.42109e-014 32.4094 27.2327 -29.7713 -1.42109e-014 0 13.7184 2.13866e-015 -18.138 -3.34686e-015 -1.42109e-014 0 7.5 7.95139e-016 0 -0 0 14.1428 0 0.467479 26.5994 -12.5643 -1.42109e-014 48.2444 7.10543e-015 13.427 -4.51312 -46.8387 6.88664 30.2568 -15.2765 84.0101 -2.57677 -178.77 1.42109e-014 33.7901 -7.10543e-015 -86.0539 -8.68443 10.4895 0 19.8458 0 -78.1645 22.6203 49.2571 0 31.3007 1.42109e-014 -179.999 89.6429 129.269 0 25.4109 1.42109e-014 -24.9613 -20.5014 9.01962e-015 -3.55271e-015 10 -1.42109e-014 2.64834e-031 3.18055e-015 -4.77083e-015 0 0 0 15.0933 -21.7379 36.0619 7.10543e-015 -1.42109e-014 10 6.36111e-015 -3.18055e-015 -0 1.42109e-014 33.7901 -7.10543e-015 87.7314 -4.17006 -6.5749 0 19.8458 7.10543e-015 34.7214 16.7012 46.4247 0 31.3007 0 8.01858e-005 71.1937 -23.5777 -1.42109e-014 25.4109 -1.42109e-014 -52.9114 3.9004 1.91276e-014 -2.84217e-014 10 0 -3.18055e-015 0 3.18055e-015 0 0 0 -13.7831 -20.2443 -35.3345 1.42109e-014 0 10 -0 -3.97569e-015 -0 
9.10521 82.607 -125.853 -13.8031 5.5183 -114.805 11.2507 -1.42109e-014 -1.42109e-014 12.0516 -4.21163 20.1028 0 -48.2125 -7.10543e-015 -3.69724e-015 62.0321 5.08642e-015 0 -41.8358 -1.77636e-015 5.29058 -16.958 18.7214 -1.42109e-014 3.55271e-015 13.7184 -6.49454e-015 -15.1616 -6.59051e-015 0 3.55271e-015 7.5 1.59028e-015 0 1.59028e-015 -11.2507 0 0 -33.1811 -3.75418 -8.91968 0 -48.2125 0 2.32389e-015 15.0746 3.2939e-015 0 -41.8358 0 30.8188 26.6928 -19.3602 -1.42109e-014 7.10543e-015 13.7184 2.93878e-015 -18.0568 -3.34531e-015 1.42109e-014 8.88178e-016 7.5 -3.97569e-016 -3.97569e-016 3.18055e-015 1.42109e-014 14.1428 0 0.885406 26.638 -12.8221 1.42109e-014 48.2444 -1.42109e-014 13.1108 -4.54479 -46.3781 6.9072 30.3086 -15.2825 84.1201 -2.55041 -178.805 0 33.7901 7.10543e-015 -85.9455 -8.62521 10.5067 0 19.8458 0 -78.2626 22.9925 48.8829 -3.55271e-015 31.3007 0 -180 89.8086 129.214 -1.42109e-014 25.4109 0 -24.9265 -20.536 4.5639e-015 -1.06581e-014 10 -2.84217e-014 -4.77083e-015 -3.18055e-015 -3.97569e-015 0 0 0 15.0933 -21.7379 36.0619 7.10543e-015 0 10 -6.36111e-015 0 1.59028e-015 0 33.7901 7.10543e-015 87.6587 -4.01158 -6.75656 2.84217e-014 19.8458 0 34.709 17.1657 46.1283 2.84217e-014 31.3007 0 -3.26784e-006 70.982 -23.3581 0 25.4109 0 -52.8729 3.90625 9.56388e-015 -2.84217e-014 10 0 3.18055e-015 0 6.36111e-015 0 0 0 -13.7831 -20.2443 -35.3345 -4.26326e-014 0 10 0 7.95139e-016 -0 
9.28901 82.6584 -125.968 -13.5528 5.81108 -114.863 11.2507 0 0 12.4161 -4.48006 19.8873 0 -48.2125 -7.10543e-015 -2.51285e-015 62.076 5.09377e-015 -1.42109e-014 -41.8358 -5.32907e-015 5.70207 -16.3587 19.3607 0 0 13.7184 -3.87177e-015 -15.7842 3.30518e-015 1.42109e-014 -3.55271e-015 7.5 -3.18055e-015 -7.95139e-016 -0 -11.2507 -1.42109e-014 0 -32.5602 -4.45505 -7.42609 0 -48.2125 0 1.79243e-015 15.7367 -6.60882e-015 0 -41.8358 0 27.1473 27.2807 -9.35498 -2.84217e-014 0 13.7184 -3.97569e-015 -19.3448 -0 2.84217e-014 0 7.5 -3.97569e-016 -3.97569e-016 -0 0 14.1428 0 1.27031 26.7228 -12.8439 0 48.2444 0 13.1585 -4.51596 -46.1968 6.92903 30.361 -15.277 84.3068 -2.66241 -178.743 1.42109e-014 33.7901 0 -85.6925 -8.5871 10.4241 -2.84217e-014 19.8458 7.10543e-015 -78.2695 23.2739 48.7162 0 31.3007 0 -179.999 89.8522 129.738 0 25.4109 0 -24.9279 -20.5746 5.94518e-015 0 10 2.84217e-014 -1.59028e-015 0 -3.97569e-015 0 0 0 15.0933 -21.7379 36.0619 -7.10543e-015 2.84217e-014 10 -0 -3.18055e-015 -0 1.42109e-014 33.7901 0 87.6623 -3.97511 -6.94685 0 19.8458 -7.10543e-015 34.8234 17.3342 45.7875 0 31.3007 0 8.05749e-006 70.8608 -23.4396 -2.84217e-014 25.4109 -7.10543e-015 -52.708 3.92731 -0 2.84217e-014 10 0 0 7.95139e-015 -0 0 0 0 -13.7831 -20.2443 -35.3345 0 0 10 6.62086e-032 2.38542e-015 -1.59028e-015 
